<?xml version="1.0" encoding="utf-8"?>
<!-- Generator: Adobe Illustrator 19.2.1, SVG Export Plug-In . SVG Version: 6.00 Build 0)  -->
<svg version="1.1"  width="200" height="200" id="Layer_1" xmlns="http://www.w3.org/2000/svg" xmlns:xlink="http://www.w3.org/1999/xlink" x="0px" y="0px"
	 viewBox="0 0 44.02 150" style="enable-background:new 0 0 44.02 150;" xml:space="preserve">
<style type="text/css">
	.st0{display:none;fill:none;stroke:#FFFFFF;stroke-width:2;stroke-linecap:round;stroke-miterlimit:10;}
	.st1{fill:#5CDBA9;}
	.st2{fill:#5CDBFF;}
	.st3{fill:#42C18E;}
	.st4{fill:#4DC0FF;}
	.st5{fill:#459571;}
	.st6{fill:#457BA4;}
	.st7{fill:#1A9DED;}
	.st8{fill:#1A71ED;}
	.st9{fill:#58595B;}
	.st10{fill:#F9D35B;}
	.st11{fill:#414042;}
	.st12{opacity:0.4;fill:#414042;}
	.st13{fill:#EDDABB;}
	.st14{fill:#DECDB1;}
	.st15{fill:#F8E7D1;}
	.st16{fill:#C4DFED;}
	.st17{fill:#DEF8FF;}
	.st18{fill:#D1F1FF;}
	.st19{fill:#585963;}
	.st20{fill:#FF868A;}
	.st21{fill:#FF9296;}
	.st22{fill:#EC8287;}
	.st23{fill:#272D38;}
	.st24{fill:#F2F2F2;}
	.st25{fill:#59D6D6;}
	.st26{fill:#56C681;}
	.st27{clip-path:url(#SVGID_2_);fill:#E6E6E6;}
	.st28{fill:#54CBCB;}
	.st29{fill:#52BC7A;}
	.st30{fill:#FFD900;}
	.st31{fill:#FFDE00;}
	.st32{fill:#FFA400;}
	.st33{fill:#47413A;}
	.st34{fill:#FFD16A;}
	.st35{fill:#FF888A;}
	.st36{fill:#E1E2E3;}
	.st37{fill:#45AEFF;}
	.st38{fill:#FFC749;}
	.st39{fill:#FF6A71;}
	.st40{fill:#B7B9BB;}
	.st41{fill:#4585FF;}
	.st42{fill:#52597A;}
	.st43{fill:#699BFF;}
	.st44{fill:#64428F;}
	.st45{fill:#FFFFFF;}
	.st46{fill:#5C8BFF;}
	.st47{fill:#D9D9D9;}
	.st48{fill:#49A86E;}
	.st49{fill:#F020D4;}
	.st50{fill:#B363E7;}
	.st51{fill:#FFD684;}
	.st52{fill:#D420C1;}
	.st53{fill:#FFB876;}
	.st54{fill:#A14DD8;}
	.st55{fill:#8248AA;}
	.st56{fill:#77675D;}
	.st57{fill:#C7AB91;}
	.st58{fill:#B59D84;}
	.st59{fill:#675A51;}
	.st60{fill:#9E8774;}
	.st61{fill:#D4B699;}
	.st62{fill:#554650;}
	.st63{fill:#A47C50;}
	.st64{fill:#BDB096;}
	.st65{fill:#BF956C;}
	.st66{fill:#594A42;}
	.st67{fill:#7C37A3;}
	.st68{fill:#733789;}
	.st69{fill:#94C969;}
	.st70{fill:#70B339;}
	.st71{fill:#AF4FE4;}
	.st72{fill:#CCCECF;}
	.st73{fill:#39C24A;}
	.st74{fill:#4EE94A;}
	.st75{fill:#ECEDED;}
	.st76{fill:#559055;}
	.st77{fill:#C766E5;}
	.st78{fill:#AC33D0;}
	.st79{fill:#E4E5E5;}
	.st80{fill:#F6AB40;}
	.st81{fill:#754C29;}
	.st82{fill:#A2A4A7;}
	.st83{opacity:0.3;fill:#FFFFFF;}
	.st84{fill:#755941;}
	.st85{fill:#5AF1FF;}
	.st86{fill:#91FFFF;}
	.st87{fill:#DFB48C;}
	.st88{fill:#537C6B;}
	.st89{fill:#FFD349;}
	.st90{fill:#FFDF71;}
	.st91{fill:#FFE98C;}
	.st92{fill:#D56A5C;}
	.st93{fill:#A4815D;}
	.st94{fill:#B2594E;}
	.st95{fill:#FFD713;}
	.st96{fill:#ECEDDE;}
	.st97{fill:#DFDCCA;}
	.st98{fill:#F0EDDE;}
	.st99{fill:#6D6E71;}
	.st100{fill:#656669;}
	.st101{fill:#E75C54;}
	.st102{fill:#FFA34D;}
	.st103{fill:#56A86C;}
	.st104{fill:#56B2F4;}
	.st105{fill:#FFD569;}
	.st106{fill:#9773C0;}
	.st107{fill:#8E9093;}
	.st108{fill:#EEEFF0;}
	.st109{fill:#A2F1FF;}
	.st110{fill:#C3F6FF;}
</style>
<g>
	<path class="st26" d="M36.02,27.27c0,7.55-6.89,13.7-14,14.03v-8.6l13.66-8.22l0.07-0.01C35.93,25.38,36.02,26.32,36.02,27.27z"/>
	<path class="st26" d="M22.02,19v-8.6l13.66-8.22l0.07-0.01c0.18,0.91,0.27,1.84,0.27,2.8C36.02,12.51,29.13,18.67,22.02,19z"/>
	<path class="st26" d="M8.36,15.04l13.59,8.22h0.07v8.6h-0.07c-7.11-0.34-13.93-6.49-13.93-14.03c0-0.96,0.09-1.9,0.27-2.8
		L8.36,15.04z"/>
	<path class="st85" d="M10.02,115V66h-4.5c-1.93,0-3.5-1.57-3.5-3.5c0-0.96,0.39-1.84,1.03-2.47C3.68,59.39,4.56,59,5.52,59h16.5v54
		L22,113.05c-2.53-1.23-5.48-1.23-8.01,0.01L10.02,115z"/>
	<path class="st85" d="M22.02,59h16.5c1.93,0,3.5,1.57,3.5,3.5c0,0.96-0.39,1.84-1.03,2.47C40.36,65.61,39.48,66,38.52,66h-4.5
		v45.47l-3.6,1.77c-1.27,0.62-2.65,0.93-4.02,0.93c-1.45,0-2.89-0.34-4.2-1.02c-0.07-0.03-0.13-0.07-0.2-0.1l0.02-0.05V59z"/>
	<path class="st65" d="M22,113.05c0.07,0.03,0.13,0.07,0.2,0.1c1.31,0.68,2.75,1.02,4.2,1.02c1.37,0,2.75-0.31,4.02-0.93l3.6-1.77
		V136c0,6.63-5.37,12-12,12c-3.32,0-6.32-1.34-8.49-3.51s-3.51-5.17-3.51-8.49v-21l3.97-1.94C16.52,111.82,19.47,111.82,22,113.05z"
		/>
	<path class="st86" d="M17.02,59H5.52c-0.96,0-1.84,0.39-2.47,1.03c-0.64,0.63-1.03,1.51-1.03,2.47c0,1.93,1.57,3.5,3.5,3.5h4.5v49
		l3.97-1.94c0.964-0.473,1.99-0.762,3.03-0.875V59z"/>
	<g>
		<path class="st87" d="M17.02,112.185c-1.04,0.113-2.066,0.403-3.03,0.875L10.02,115v21c0,3.32,1.34,6.32,3.51,8.49
			c1.001,1.001,2.185,1.815,3.49,2.413V112.185z"/>
	</g>
	<path class="st88" d="M38.52,57h-14.5V43.082c7.762-1.3,14-8.145,14-15.812c0-1.036-0.095-2.064-0.282-3.057
		c-0.113-0.996-0.96-1.758-1.987-1.758c-0.22,0-0.427,0.045-0.625,0.111c-0.163,0.047-0.324,0.108-0.476,0.2L24.02,29.162v-8.38
		c7.762-1.3,14-8.145,14-15.812c0-1.037-0.095-2.065-0.282-3.059c-0.113-0.995-0.96-1.756-1.987-1.756
		c-0.22,0-0.428,0.045-0.626,0.112c-0.163,0.047-0.323,0.108-0.475,0.199L24.02,6.862V2c0-1.104-0.896-2-2-2s-2,0.896-2,2v17.755
		L9.395,13.328c-0.089-0.054-0.182-0.092-0.274-0.13c-0.024-0.011-0.047-0.024-0.071-0.034c-0.026-0.01-0.052-0.016-0.078-0.024
		c-0.214-0.077-0.441-0.125-0.681-0.125c-0.985,0-1.805,0.725-1.97,1.667c-0.199,1.011-0.3,2.07-0.3,3.148
		c0,7.679,6.244,14.542,14,15.823V57H5.52c-1.479,0-2.862,0.578-3.872,1.604C0.598,59.636,0.02,61.02,0.02,62.5
		c0,3.033,2.468,5.5,5.5,5.5h2.5v68c0,3.745,1.454,7.263,4.096,9.903c2.642,2.642,6.159,4.097,9.904,4.097c7.72,0,14-6.28,14-14V68
		h2.5c1.479,0,2.863-0.578,3.872-1.604c1.034-1.018,1.628-2.438,1.628-3.896C44.02,59.467,41.553,57,38.52,57z M33.987,27.833
		C33.686,33.498,28.933,37.835,24.02,39v-5.169L33.987,27.833z M33.987,5.533c-0.302,5.665-5.054,10.002-9.967,11.166v-5.169
		L33.987,5.533z M10.053,18.401l9.968,6.029v5.144C14.696,28.376,10.353,23.628,10.053,18.401z M4.02,62.5
		c0-0.399,0.153-0.77,0.456-1.067C4.751,61.154,5.122,61,5.52,61h14.5v49.325c-2.32-0.432-4.729-0.131-6.908,0.938l-1.092,0.534V103
		h4c1.104,0,2-0.896,2-2s-0.896-2-2-2h-4v-8h4c1.104,0,2-0.896,2-2s-0.896-2-2-2h-4v-9h4c1.104,0,2-0.896,2-2s-0.896-2-2-2h-4v-8
		c0-1.104-0.896-2-2-2h-4.5C4.693,64,4.02,63.327,4.02,62.5z M22.02,146c-2.677,0-5.189-1.039-7.076-2.925
		c-1.886-1.886-2.924-4.398-2.924-7.075v-19.752l2.85-1.393c1.985-0.974,4.266-0.975,6.28,0.004c0.058,0.031,0.116,0.062,0.176,0.09
		c3.044,1.562,6.857,1.607,9.978,0.085l0.717-0.352V136C32.02,141.514,27.534,146,22.02,146z M39.564,63.567
		C39.29,63.846,38.919,64,38.52,64h-4.5c-1.104,0-2,0.896-2,2v44.225l-2.477,1.218c-1.704,0.83-3.681,0.948-5.523,0.306V61h14.5
		c0.827,0,1.5,0.673,1.5,1.5C40.02,62.899,39.867,63.27,39.564,63.567z"/>
</g>
</svg>
